<svg width="440" height="460" viewBox="0 0 440 460" fill="none" xmlns="http://www.w3.org/2000/svg">
<mask id="mask0_242_80" style="mask-type:luminance" maskUnits="userSpaceOnUse" x="0" y="0" width="440" height="460">
<path d="M439.895 0H0V459.439H439.895V0Z" fill="white"/>
</mask>
<g mask="url(#mask0_242_80)">
<path d="M86.1448 402.009C109.933 402.009 129.217 382.724 129.217 358.936C129.217 335.148 109.933 315.864 86.1448 315.864C62.3565 315.864 43.0724 335.148 43.0724 358.936C43.0724 382.724 62.3565 402.009 86.1448 402.009Z" fill="black"/>
<path d="M189.518 132.089H103.374V174.983H189.518V132.089Z" fill="black"/>
<path d="M290.331 132.089H204.186V174.983H290.331V132.089Z" fill="black"/>
<path d="M246.948 74.6587H146.756V117.553H246.948V74.6587Z" fill="black"/>
<path d="M347.45 146.446L304.378 189.518H45.9438C45.9438 252.938 97.3493 304.378 160.803 304.378H218.233L318.735 404.88H347.45L345.773 190.661L361.808 175.161H404.88V146.446H347.45ZM261.306 304.378H317.908L318.735 361.808L261.306 304.378Z" fill="black"/>
</g>
</svg>
