<svg width="31" height="30" viewBox="0 0 31 30" fill="none" xmlns="http://www.w3.org/2000/svg">
<rect x="0.970093" y="0.5" width="29" height="29" rx="14.5" stroke="#111111"/>
<g clip-path="url(#clip0_150_152)">
<path d="M19.4341 19.5491V15.2098H18.5309C18.6201 15.491 18.6647 15.7834 18.6647 16.087C18.6647 16.6495 18.522 17.1685 18.2365 17.6439C17.9511 18.1194 17.563 18.4955 17.0724 18.7723C16.5818 19.0491 16.0466 19.1875 15.4667 19.1875C14.5881 19.1875 13.8365 18.885 13.2121 18.2801C12.5876 17.6752 12.2754 16.9442 12.2754 16.087C12.2754 15.7834 12.32 15.491 12.4092 15.2098H11.4659V19.5491C11.4659 19.6651 11.5049 19.7622 11.583 19.8404C11.661 19.9185 11.758 19.9576 11.874 19.9576H19.026C19.1375 19.9576 19.2334 19.9185 19.3137 19.8404C19.394 19.7622 19.4341 19.6651 19.4341 19.5491ZM16.9286 17.3962C16.9286 17.3962 17.0295 17.2985 17.2313 17.1032C17.4331 16.9079 17.5341 16.5334 17.5341 15.9799C17.5341 15.4263 17.3322 14.9542 16.9286 14.5636C16.5249 14.173 16.0376 13.9776 15.4667 13.9776C14.9003 13.9776 14.4152 14.173 14.0116 14.5636C13.6079 14.9542 13.4061 15.4263 13.4061 15.9799C13.4061 16.5334 13.6079 17.0055 14.0116 17.3962C14.4152 17.7868 14.9003 17.9821 15.4667 17.9821C16.0376 17.9821 16.5249 17.7868 16.9286 17.3962ZM19.4341 13.5692V12.4643C19.4341 12.3393 19.3895 12.231 19.3003 12.1395C19.2111 12.048 19.1018 12.0022 18.9725 12.0022H17.8084C17.679 12.0022 17.5697 12.048 17.4805 12.1395C17.3913 12.231 17.3467 12.3393 17.3467 12.4643V13.5692C17.3467 13.6986 17.3913 13.808 17.4805 13.8973C17.5697 13.9866 17.679 14.0312 17.8084 14.0312H18.9725C19.1018 14.0312 19.2111 13.9866 19.3003 13.8973C19.3895 13.808 19.4341 13.6986 19.4341 13.5692ZM20.5982 12.1763V19.8236C20.5982 20.1852 20.4689 20.4955 20.2102 20.7544C19.9515 21.0134 19.6415 21.1428 19.2802 21.1428H11.6398C11.2786 21.1428 10.9686 21.0134 10.7099 20.7544C10.4512 20.4955 10.3218 20.1852 10.3218 19.8236V12.1763C10.3218 11.8147 10.4512 11.5044 10.7099 11.2455C10.9686 10.9866 11.2786 10.8571 11.6398 10.8571H19.2802C19.6415 10.8571 19.9515 10.9866 20.2102 11.2455C20.4689 11.5044 20.5982 11.8147 20.5982 12.1763Z" fill="#111111"/>
</g>
<defs>
<clipPath id="clip0_150_152">
<rect width="11.04" height="12" fill="white" transform="matrix(1 0 0 -1 9.94006 22)"/>
</clipPath>
</defs>
</svg>
