<svg width="30" height="30" viewBox="0 0 30 30" fill="none" xmlns="http://www.w3.org/2000/svg">
<rect x="0.5" y="0.5" width="29" height="29" rx="14.5" stroke="white"/>
<g clip-path="url(#clip0_213_34)">
<path d="M17.9882 10.0803V11.8482H16.9369C16.553 11.8482 16.294 11.9285 16.1601 12.0893C16.0262 12.25 15.9592 12.491 15.9592 12.8125V14.0781H17.9213L17.6601 16.0602H15.9592V21.1428H13.9101V16.0602H12.2025V14.0781H13.9101V12.6183C13.9101 11.7879 14.1422 11.1439 14.6065 10.6863C15.0708 10.2288 15.6891 9.99996 16.4614 9.99996C17.1177 9.99996 17.6266 10.0268 17.9882 10.0803Z" fill="white"/>
</g>
<defs>
<clipPath id="clip0_213_34">
<rect width="7.61" height="12" fill="white" transform="matrix(1 0 0 -1 11.1899 22)"/>
</clipPath>
</defs>
</svg>
