<svg width="31" height="30" viewBox="0 0 31 30" fill="none" xmlns="http://www.w3.org/2000/svg">
<rect x="0.560059" y="0.5" width="29" height="29" rx="14.5" stroke="#111111"/>
<g clip-path="url(#clip0_150_143)">
<path d="M18.0483 10.0803V11.8482H16.9969C16.613 11.8482 16.3541 11.9285 16.2202 12.0893C16.0862 12.25 16.0193 12.491 16.0193 12.8125V14.0781H17.9813L17.7202 16.0602H16.0193V21.1428H13.9702V16.0602H12.2626V14.0781H13.9702V12.6183C13.9702 11.7879 14.2023 11.1439 14.6666 10.6863C15.1309 10.2288 15.7492 9.99996 16.5215 9.99996C17.1778 9.99996 17.6867 10.0268 18.0483 10.0803Z" fill="#111111"/>
</g>
<defs>
<clipPath id="clip0_150_143">
<rect width="7.61" height="12" fill="white" transform="matrix(1 0 0 -1 11.25 22)"/>
</clipPath>
</defs>
</svg>
