<svg width="30" height="30" viewBox="0 0 30 30" fill="none" xmlns="http://www.w3.org/2000/svg">
<rect x="0.500122" y="0.5" width="29" height="29" rx="14.5" stroke="#111111"/>
<path d="M16.9077 16.1138C16.9077 17.0424 16.7136 17.8694 16.3254 18.5948C15.9373 19.3203 15.384 19.8872 14.6657 20.2957C13.9474 20.7042 13.1243 20.9084 12.1963 20.9084C11.5315 20.9084 10.8957 20.779 10.289 20.5201C9.68221 20.2611 9.16021 19.9129 8.72298 19.4754C8.28575 19.0379 7.93775 18.5156 7.67899 17.9084C7.42022 17.3013 7.29083 16.6651 7.29083 16C7.29083 15.3348 7.42022 14.6986 7.67899 14.0915C7.93775 13.4843 8.28575 12.962 8.72298 12.5245C9.16021 12.087 9.68221 11.7388 10.289 11.4799C10.8957 11.2209 11.5315 11.0915 12.1963 11.0915C13.4723 11.0915 14.5676 11.5201 15.4822 12.3772L14.1504 13.6562C13.6284 13.1518 12.9771 12.8995 12.1963 12.8995C11.6475 12.8995 11.14 13.0379 10.6738 13.3147C10.2076 13.5915 9.83837 13.9676 9.56621 14.443C9.29406 14.9185 9.15798 15.4375 9.15798 16C9.15798 16.5625 9.29406 17.0814 9.56621 17.5569C9.83837 18.0323 10.2076 18.4084 10.6738 18.6852C11.14 18.962 11.6475 19.1004 12.1963 19.1004C12.5666 19.1004 12.9068 19.0491 13.2169 18.9464C13.5269 18.8437 13.7824 18.7154 13.9831 18.5613C14.1839 18.4073 14.359 18.2321 14.5085 18.0357C14.6579 17.8393 14.7672 17.654 14.8364 17.4799C14.9055 17.3058 14.9535 17.1406 14.9803 16.9843H12.1963V15.2968H16.8273C16.8809 15.5781 16.9077 15.8504 16.9077 16.1138ZM22.7099 15.2968V16.7031H21.3112V18.1026H19.9058V16.7031H18.5071V15.2968H19.9058V13.8973H21.3112V15.2968H22.7099Z" fill="#111111"/>
</svg>
