<svg width="31" height="30" viewBox="0 0 31 30" fill="none" xmlns="http://www.w3.org/2000/svg">
<rect x="1.44006" y="0.5" width="29" height="29" rx="14.5" stroke="white"/>
<path d="M17.8476 16.1138C17.8476 17.0424 17.6535 17.8694 17.2654 18.5948C16.8772 19.3203 16.324 19.8872 15.6057 20.2957C14.8874 20.7042 14.0642 20.9084 13.1362 20.9084C12.4715 20.9084 11.8357 20.779 11.2289 20.5201C10.6222 20.2611 10.1002 19.9129 9.66292 19.4754C9.22569 19.0379 8.8777 18.5156 8.61893 17.9084C8.36016 17.3013 8.23077 16.6651 8.23077 16C8.23077 15.3348 8.36016 14.6986 8.61893 14.0915C8.8777 13.4843 9.22569 12.962 9.66292 12.5245C10.1002 12.087 10.6222 11.7388 11.2289 11.4799C11.8357 11.2209 12.4715 11.0915 13.1362 11.0915C14.4122 11.0915 15.5075 11.5201 16.4221 12.3772L15.0904 13.6562C14.5684 13.1518 13.917 12.8995 13.1362 12.8995C12.5875 12.8995 12.08 13.0379 11.6137 13.3147C11.1475 13.5915 10.7783 13.9676 10.5062 14.443C10.234 14.9185 10.0979 15.4375 10.0979 16C10.0979 16.5625 10.234 17.0814 10.5062 17.5569C10.7783 18.0323 11.1475 18.4084 11.6137 18.6852C12.08 18.962 12.5875 19.1004 13.1362 19.1004C13.5065 19.1004 13.8467 19.0491 14.1568 18.9464C14.4669 18.8437 14.7223 18.7154 14.9231 18.5613C15.1238 18.4073 15.2989 18.2321 15.4484 18.0357C15.5979 17.8393 15.7072 17.654 15.7763 17.4799C15.8455 17.3058 15.8934 17.1406 15.9202 16.9843H13.1362V15.2968H17.7673C17.8208 15.5781 17.8476 15.8504 17.8476 16.1138ZM23.6498 15.2968V16.7031H22.2511V18.1026H20.8457V16.7031H19.4471V15.2968H20.8457V13.8973H22.2511V15.2968H23.6498Z" fill="white"/>
</svg>
