<svg width="31" height="30" viewBox="0 0 31 30" fill="none" xmlns="http://www.w3.org/2000/svg">
<rect x="0.910034" y="0.5" width="29" height="29" rx="14.5" stroke="white"/>
<g clip-path="url(#clip0_213_43)">
<path d="M19.3741 19.5491V15.2098H18.4709C18.5601 15.491 18.6047 15.7834 18.6047 16.087C18.6047 16.6495 18.4619 17.1685 18.1765 17.6439C17.891 18.1194 17.503 18.4955 17.0124 18.7723C16.5217 19.0491 15.9865 19.1875 15.4067 19.1875C14.528 19.1875 13.7765 18.885 13.152 18.2801C12.5276 17.6752 12.2154 16.9442 12.2154 16.087C12.2154 15.7834 12.26 15.491 12.3492 15.2098H11.4058V19.5491C11.4058 19.6651 11.4449 19.7622 11.5229 19.8404C11.601 19.9185 11.698 19.9576 11.8139 19.9576H18.9659C19.0775 19.9576 19.1734 19.9185 19.2536 19.8404C19.3339 19.7622 19.3741 19.6651 19.3741 19.5491ZM16.8685 17.3962C16.8685 17.3962 16.9694 17.2985 17.1713 17.1032C17.3731 16.9079 17.474 16.5334 17.474 15.9799C17.474 15.4263 17.2722 14.9542 16.8685 14.5636C16.4649 14.173 15.9776 13.9776 15.4067 13.9776C14.8402 13.9776 14.3552 14.173 13.9515 14.5636C13.5479 14.9542 13.346 15.4263 13.346 15.9799C13.346 16.5334 13.5479 17.0055 13.9515 17.3962C14.3552 17.7868 14.8402 17.9821 15.4067 17.9821C15.9776 17.9821 16.4649 17.7868 16.8685 17.3962ZM19.3741 13.5692V12.4643C19.3741 12.3393 19.3295 12.231 19.2403 12.1395C19.151 12.048 19.0418 12.0022 18.9124 12.0022H17.7483C17.619 12.0022 17.5097 12.048 17.4205 12.1395C17.3313 12.231 17.2867 12.3393 17.2867 12.4643V13.5692C17.2867 13.6986 17.3313 13.808 17.4205 13.8973C17.5097 13.9866 17.619 14.0312 17.7483 14.0312H18.9124C19.0418 14.0312 19.151 13.9866 19.2403 13.8973C19.3295 13.808 19.3741 13.6986 19.3741 13.5692ZM20.5382 12.1763V19.8236C20.5382 20.1852 20.4088 20.4955 20.1501 20.7544C19.8914 21.0134 19.5815 21.1428 19.2202 21.1428H11.5798C11.2185 21.1428 10.9085 21.0134 10.6498 20.7544C10.3911 20.4955 10.2618 20.1852 10.2618 19.8236V12.1763C10.2618 11.8147 10.3911 11.5044 10.6498 11.2455C10.9085 10.9866 11.2185 10.8571 11.5798 10.8571H19.2202C19.5815 10.8571 19.8914 10.9866 20.1501 11.2455C20.4088 11.5044 20.5382 11.8147 20.5382 12.1763Z" fill="white"/>
</g>
<defs>
<clipPath id="clip0_213_43">
<rect width="11.04" height="12" fill="white" transform="matrix(1 0 0 -1 9.88 22)"/>
</clipPath>
</defs>
</svg>
