<svg width="31" height="30" viewBox="0 0 31 30" fill="none" xmlns="http://www.w3.org/2000/svg">
<rect x="1.38" y="0.5" width="29" height="29" rx="14.5" stroke="white"/>
<g clip-path="url(#clip0_213_46)">
<path d="M20.319 13.4185C20.319 13.4185 20.4339 13.6155 20.6636 14.0095C20.8933 14.4034 21.0082 15.0669 21.0082 16C21.0082 16.933 20.7785 17.7935 20.319 18.5814C19.8596 19.3694 19.2363 19.9933 18.4491 20.4531C17.6619 20.9129 16.8021 21.1428 15.87 21.1428C15.3749 21.1428 14.8887 21.0714 14.4115 20.9285C14.6746 20.5134 14.8486 20.1473 14.9333 19.8303C14.9734 19.6785 15.0939 19.2076 15.2946 18.4174C15.3838 18.5915 15.5466 18.7422 15.783 18.8694C16.0194 18.9966 16.2736 19.0602 16.5457 19.0602C17.0854 19.0602 17.5671 18.9073 17.9908 18.6015C18.4145 18.2957 18.7424 17.875 18.9743 17.3393C19.2062 16.8035 19.3222 16.2009 19.3222 15.5312C19.3222 15.0223 19.1895 14.5446 18.9241 14.0982C18.6587 13.6518 18.274 13.2879 17.77 13.0067C17.266 12.7254 16.6973 12.5848 16.064 12.5848C15.5956 12.5848 15.1585 12.6495 14.7527 12.779C14.3468 12.9084 14.0022 13.0803 13.719 13.2946C13.4358 13.5089 13.1927 13.7555 12.9897 14.0346C12.7868 14.3136 12.6374 14.6026 12.5415 14.9018C12.4456 15.2009 12.3977 15.5 12.3977 15.7991C12.3977 16.2634 12.4869 16.6718 12.6653 17.0245C12.8437 17.3772 13.1046 17.625 13.448 17.7678C13.5818 17.8214 13.6666 17.7768 13.7023 17.6339C13.7112 17.6026 13.729 17.5334 13.7558 17.4263C13.7826 17.3192 13.8004 17.2522 13.8093 17.2254C13.8361 17.1227 13.8115 17.0268 13.7357 16.9375C13.5083 16.6651 13.3945 16.3281 13.3945 15.9263C13.3945 15.2522 13.6276 14.673 14.0937 14.1886C14.5598 13.7042 15.1697 13.462 15.9235 13.462C16.597 13.462 17.1222 13.6451 17.4991 14.0111C17.8759 14.3772 18.0644 14.8526 18.0644 15.4375C18.0644 16.1964 17.9116 16.8415 17.6061 17.3727C17.3006 17.904 16.9092 18.1696 16.4319 18.1696C16.1599 18.1696 15.9413 18.0725 15.7763 17.8783C15.6113 17.6841 15.56 17.4509 15.6224 17.1785C15.6581 17.0223 15.7172 16.8136 15.7997 16.5524C15.8822 16.2913 15.9491 16.0613 16.0004 15.8627C16.0517 15.664 16.0774 15.4955 16.0774 15.3571C16.0774 15.1339 16.0171 14.9486 15.8967 14.8013C15.7763 14.654 15.6046 14.5803 15.3816 14.5803C15.105 14.5803 14.8709 14.7076 14.6791 14.962C14.4873 15.2165 14.3914 15.5334 14.3914 15.9129C14.3914 16.2388 14.4471 16.5111 14.5586 16.7299L13.8963 19.529C13.8205 19.8415 13.7915 20.2366 13.8093 20.7143C12.8905 20.308 12.1479 19.6808 11.5814 18.8326C11.015 17.9843 10.7318 17.0401 10.7318 16C10.7318 15.0669 10.9615 14.2064 11.4209 13.4185C11.8803 12.6305 12.5036 12.0067 13.2908 11.5468C14.078 11.087 14.9378 10.8571 15.87 10.8571C16.8021 10.8571 17.6619 11.087 18.4491 11.5468C19.2363 12.0067 19.8596 12.6305 20.319 13.4185Z" fill="white"/>
</g>
<defs>
<clipPath id="clip0_213_46">
<rect width="11.04" height="12" fill="white" transform="matrix(1 0 0 -1 10.35 22)"/>
</clipPath>
</defs>
</svg>
