<svg width="31" height="30" viewBox="0 0 31 30" fill="none" xmlns="http://www.w3.org/2000/svg">
<rect x="1.44006" y="0.5" width="29" height="29" rx="14.5" stroke="#111111"/>
<g clip-path="url(#clip0_150_155)">
<path d="M20.3791 13.4185C20.3791 13.4185 20.494 13.6155 20.7237 14.0095C20.9534 14.4034 21.0682 15.0669 21.0682 16C21.0682 16.933 20.8385 17.7935 20.3791 18.5814C19.9197 19.3694 19.2964 19.9933 18.5091 20.4531C17.7219 20.9129 16.8622 21.1428 15.93 21.1428C15.4349 21.1428 14.9488 21.0714 14.4715 20.9285C14.7347 20.5134 14.9086 20.1473 14.9934 19.8303C15.0335 19.6785 15.1539 19.2076 15.3546 18.4174C15.4438 18.5915 15.6066 18.7422 15.843 18.8694C16.0794 18.9966 16.3337 19.0602 16.6057 19.0602C17.1454 19.0602 17.6271 18.9073 18.0509 18.6015C18.4746 18.2957 18.8024 17.875 19.0343 17.3393C19.2663 16.8035 19.3822 16.2009 19.3822 15.5312C19.3822 15.0223 19.2495 14.5446 18.9842 14.0982C18.7188 13.6518 18.3341 13.2879 17.8301 13.0067C17.3261 12.7254 16.7574 12.5848 16.124 12.5848C15.6557 12.5848 15.2186 12.6495 14.8127 12.779C14.4068 12.9084 14.0623 13.0803 13.7791 13.2946C13.4958 13.5089 13.2527 13.7555 13.0498 14.0346C12.8469 14.3136 12.6974 14.6026 12.6016 14.9018C12.5057 15.2009 12.4577 15.5 12.4577 15.7991C12.4577 16.2634 12.5469 16.6718 12.7253 17.0245C12.9037 17.3772 13.1647 17.625 13.5081 17.7678C13.6419 17.8214 13.7267 17.7768 13.7623 17.6339C13.7713 17.6026 13.7891 17.5334 13.8159 17.4263C13.8426 17.3192 13.8605 17.2522 13.8694 17.2254C13.8961 17.1227 13.8716 17.0268 13.7958 16.9375C13.5683 16.6651 13.4546 16.3281 13.4546 15.9263C13.4546 15.2522 13.6876 14.673 14.1537 14.1886C14.6198 13.7042 15.2298 13.462 15.9835 13.462C16.657 13.462 17.1822 13.6451 17.5591 14.0111C17.936 14.3772 18.1245 14.8526 18.1245 15.4375C18.1245 16.1964 17.9717 16.8415 17.6662 17.3727C17.3606 17.904 16.9692 18.1696 16.492 18.1696C16.2199 18.1696 16.0014 18.0725 15.8363 17.8783C15.6713 17.6841 15.62 17.4509 15.6825 17.1785C15.7182 17.0223 15.7772 16.8136 15.8598 16.5524C15.9423 16.2913 16.0092 16.0613 16.0605 15.8627C16.1118 15.664 16.1374 15.4955 16.1374 15.3571C16.1374 15.1339 16.0772 14.9486 15.9568 14.8013C15.8363 14.654 15.6646 14.5803 15.4416 14.5803C15.1651 14.5803 14.9309 14.7076 14.7391 14.962C14.5473 15.2165 14.4514 15.5334 14.4514 15.9129C14.4514 16.2388 14.5072 16.5111 14.6187 16.7299L13.9564 19.529C13.8805 19.8415 13.8515 20.2366 13.8694 20.7143C12.9506 20.308 12.2079 19.6808 11.6415 18.8326C11.075 17.9843 10.7918 17.0401 10.7918 16C10.7918 15.0669 11.0215 14.2064 11.4809 13.4185C11.9403 12.6305 12.5636 12.0067 13.3509 11.5468C14.1381 11.087 14.9978 10.8571 15.93 10.8571C16.8622 10.8571 17.7219 11.087 18.5091 11.5468C19.2964 12.0067 19.9197 12.6305 20.3791 13.4185Z" fill="#111111"/>
</g>
<defs>
<clipPath id="clip0_150_155">
<rect width="11.04" height="12" fill="white" transform="matrix(1 0 0 -1 10.41 22)"/>
</clipPath>
</defs>
</svg>
