<svg width="31" height="30" viewBox="0 0 31 30" fill="none" xmlns="http://www.w3.org/2000/svg">
<rect x="0.970093" y="0.5" width="29" height="29" rx="14.5" stroke="white"/>
<path d="M20.7425 12.7322C20.4436 13.1697 20.0823 13.5425 19.6586 13.8505C19.663 13.913 19.6652 14.0067 19.6652 14.1317C19.6652 14.7121 19.5805 15.2913 19.411 15.8695C19.2415 16.4476 18.9839 17.0023 18.6382 17.5335C18.2925 18.0648 17.881 18.5347 17.4038 18.9431C16.9265 19.3516 16.3511 19.6775 15.6775 19.9208C15.004 20.1641 14.2836 20.2858 13.5164 20.2858C12.3076 20.2858 11.2014 19.9621 10.1978 19.3148C10.3539 19.3326 10.5278 19.3416 10.7196 19.3416C11.7233 19.3416 12.6176 19.0335 13.4026 18.4175C12.9343 18.4085 12.515 18.2646 12.1448 17.9855C11.7746 17.7065 11.5203 17.3505 11.382 16.9175C11.5292 16.9398 11.6653 16.9509 11.7902 16.9509C11.982 16.9509 12.1715 16.9264 12.3589 16.8773C11.8593 16.7746 11.4456 16.5257 11.1177 16.1306C10.7899 15.7355 10.626 15.2768 10.626 14.7545V14.7277C10.9293 14.8974 11.2549 14.9889 11.6028 15.0023C11.3084 14.8059 11.0742 14.5492 10.9003 14.2322C10.7263 13.9152 10.6393 13.5715 10.6393 13.2009C10.6393 12.8081 10.7375 12.4442 10.9337 12.1094C11.4735 12.7746 12.1303 13.307 12.9042 13.7065C13.6781 14.1061 14.5066 14.3282 15.3898 14.3728C15.3541 14.2032 15.3363 14.038 15.3363 13.8773C15.3363 13.2791 15.5471 12.769 15.9686 12.3472C16.3901 11.9253 16.8997 11.7143 17.4974 11.7143C18.1219 11.7143 18.6482 11.942 19.0765 12.3974C19.5627 12.3036 20.0199 12.1295 20.4481 11.8751C20.283 12.3884 19.9663 12.7858 19.498 13.067C19.9128 13.0224 20.3276 12.9108 20.7425 12.7322Z" fill="white"/>
</svg>
