<svg width="31" height="30" viewBox="0 0 31 30" fill="none" xmlns="http://www.w3.org/2000/svg">
<rect x="1.03015" y="0.5" width="29" height="29" rx="14.5" stroke="#111111"/>
<path d="M20.8025 12.7322C20.5037 13.1697 20.1424 13.5425 19.7186 13.8505C19.7231 13.913 19.7253 14.0067 19.7253 14.1317C19.7253 14.7121 19.6406 15.2913 19.4711 15.8695C19.3016 16.4476 19.044 17.0023 18.6983 17.5335C18.3526 18.0648 17.9411 18.5347 17.4638 18.9431C16.9865 19.3516 16.4111 19.6775 15.7376 19.9208C15.064 20.1641 14.3437 20.2858 13.5765 20.2858C12.3676 20.2858 11.2614 19.9621 10.2578 19.3148C10.4139 19.3326 10.5879 19.3416 10.7797 19.3416C11.7833 19.3416 12.6777 19.0335 13.4627 18.4175C12.9944 18.4085 12.5751 18.2646 12.2048 17.9855C11.8346 17.7065 11.5804 17.3505 11.4421 16.9175C11.5893 16.9398 11.7253 16.9509 11.8502 16.9509C12.042 16.9509 12.2316 16.9264 12.4189 16.8773C11.9194 16.7746 11.5056 16.5257 11.1778 16.1306C10.8499 15.7355 10.686 15.2768 10.686 14.7545V14.7277C10.9893 14.8974 11.315 14.9889 11.6629 15.0023C11.3685 14.8059 11.1343 14.5492 10.9603 14.2322C10.7864 13.9152 10.6994 13.5715 10.6994 13.2009C10.6994 12.8081 10.7975 12.4442 10.9938 12.1094C11.5335 12.7746 12.1903 13.307 12.9642 13.7065C13.7381 14.1061 14.5667 14.3282 15.4499 14.3728C15.4142 14.2032 15.3964 14.038 15.3964 13.8773C15.3964 13.2791 15.6071 12.769 16.0286 12.3472C16.4502 11.9253 16.9598 11.7143 17.5575 11.7143C18.182 11.7143 18.7083 11.942 19.1365 12.3974C19.6227 12.3036 20.0799 12.1295 20.5081 11.8751C20.3431 12.3884 20.0264 12.7858 19.558 13.067C19.9729 13.0224 20.3877 12.9108 20.8025 12.7322Z" fill="#111111"/>
</svg>
